<?xml version="1.0" encoding="utf-8"?>
<!-- Generator: Adobe Illustrator 23.0.3, SVG Export Plug-In . SVG Version: 6.00 Build 0)  -->
<svg version="1.1" id="Layer_1" xmlns="http://www.w3.org/2000/svg" xmlns:xlink="http://www.w3.org/1999/xlink" x="0px" y="0px"
	 viewBox="0 0 595.3 595.9" style="enable-background:new 0 0 595.3 595.9;" xml:space="preserve">
<style type="text/css">
	.st0{fill-rule:evenodd;clip-rule:evenodd;fill:#25B7D3;}
	.st1{fill-rule:evenodd;clip-rule:evenodd;fill:#FFFFFF;}
	.st2{fill-rule:evenodd;clip-rule:evenodd;fill:#D9D6D4;}
	.st3{fill-rule:evenodd;clip-rule:evenodd;fill:#F53939;}
	.st4{fill-rule:evenodd;clip-rule:evenodd;fill:#EA9B38;}
	.st5{fill-rule:evenodd;clip-rule:evenodd;fill:#8CC666;}
	.st6{fill:none;stroke:#000000;stroke-width:11;stroke-miterlimit:10;}
	.st7{fill:none;stroke:#000000;stroke-width:33;stroke-linecap:round;stroke-linejoin:round;stroke-miterlimit:10;}
</style>
<circle id="circle6" class="st0" cx="297.8" cy="298.1" r="297.8"/>
<path class="st1" d="M508.1,141.4c0-10.6-8.6-19.3-19.3-19.3h-382c-10.6,0-19.3,8.6-19.3,19.3v313.4c0,10.6,8.6,19.3,19.3,19.3
	h381.9c10.6,0,19.3-8.6,19.3-19.3V141.4H508.1z"/>
<path class="st2" d="M508.1,141.4V180H87.6v-38.6c0-10.6,8.6-19.3,19.3-19.3h381.9C499.4,122.2,508.1,130.8,508.1,141.4z"/>
<path class="st3" d="M125.5,132.2c10.5-0.7,19.5,7.3,20.1,17.7c0.7,10.5-7.3,19.5-17.7,20.1c-10.5,0.7-19.5-7.3-20.1-17.7
	C107.1,141.9,115.1,132.8,125.5,132.2z"/>
<path class="st4" d="M175.1,132.2c10.5-0.7,19.5,7.3,20.1,17.7c0.7,10.5-7.3,19.5-17.7,20.1c-10.5,0.7-19.5-7.3-20.1-17.7
	C156.7,141.9,164.6,132.8,175.1,132.2z"/>
<path class="st5" d="M224.6,132.2c10.5-0.7,19.5,7.3,20.1,17.7c0.7,10.5-7.3,19.5-17.7,20.1c-10.5,0.7-19.5-7.3-20.1-17.7
	C206.2,141.9,214.2,132.8,224.6,132.2z"/>
<path class="st6" d="M-443.1,151.1"/>
<g>
	<path class="st7" d="M233.3,403.5c7.4-28.6,33.4-49.8,64.4-49.8s57,21.2,64.4,49.8"/>
	<g>
		<line class="st7" x1="264.9" y1="297.7" x2="264.9" y2="221.5"/>
		<line class="st7" x1="330.3" y1="297.7" x2="330.3" y2="221.5"/>
	</g>
</g>
</svg>
